<svg xmlns="http://www.w3.org/2000/svg" viewBox="0 0 426 351.81"><defs><style>.cls-1{fill:#fff;}</style></defs><title>Asset 1</title><g id="Layer_2" data-name="Layer 2"><g id="Ñëîé_1" data-name="Ñëîé 1"><path class="cls-1" d="M213,209.22h.87l-.88-.11c-31.44-4.46-65-24.63-75.95-68.21-15.48-61.82,9.21-88.05,9.21-88.05,16.18,3.57,19.22,11.85,47.65,9s84.62,2.07,82.16,37.46c-1.73,25.08,13,35.81,20.79,39.68q1.91-5.24,3.36-10.63a8.65,8.65,0,0,0,3.66.82h1.6c-5.85,17.1-14.67,39.46-21.73,45.23-2.32,1.89-6.37,3.86-11.39,5.71a118.48,118.48,0,0,0,12-15.72,244,244,0,0,1-17.85,17.69,170.48,170.48,0,0,1-24.78,5.55c-1.76-4.21-7.55-7.3-14.42-7.3-5.73,0-10.71,2.15-13.22,5.3a7.44,7.44,0,0,0-1.76,4.69,6.92,6.92,0,0,0,.3,2c1.38,4.56,7.43,8,14.68,8,6.44,0,11.92-2.71,14-6.52,4.65-.63,9.45-1.5,14.15-2.55-10.5,8.07-21.44,14.56-31.25,17,14.08-2.37,27.17-9.11,38.52-18.79,10.89-2.93,20.41-6.69,24.87-10.34,9-7.39,18.81-33.39,24.34-49.95h.53a8.71,8.71,0,0,0,8.71-8.71V90.4a8.71,8.71,0,0,0-8.71-8.71h-8.6c-.2,0-.4,0-.6,0a91.51,91.51,0,0,0-4-16.4c-5.4-19.23-25.71-67-93.72-65.27-57.25,1.42-73.34,37.07-67.32,43.4-10.49,14.26-16.64,32.43-16.64,53.77C121.57,152.24,162.5,209.22,213,209.22Z"/><path class="cls-1" d="M400,279.83c-38.62-32.64-110.91-56.08-110.91-56.08S227.71,283.38,213,302.59c-14.71-19.21-76.07-78.84-76.07-78.84S64.64,247.19,26,279.83C-10,310.3-.9,341.26,8.1,345.22c7.36,3.23,145.57,5.77,195.85,6.59h18.1c50.28-.82,188.49-3.35,195.85-6.59C426.9,341.26,436,310.3,400,279.83Z"/><path class="cls-1" d="M224.21,208.27a66,66,0,0,1-10.34.93A30.86,30.86,0,0,0,224.21,208.27Z"/></g></g></svg>