<svg xmlns="http://www.w3.org/2000/svg" viewBox="0 0 399.5 500"><defs><style>.cls-1{fill:#fff;}</style></defs><title>Asset 1</title><g id="Layer_2" data-name="Layer 2"><g id="Ñëîé_1" data-name="Ñëîé 1"><path class="cls-1" d="M30.84,398.34a5.47,5.47,0,0,1-5.46-5.47v-362a5.47,5.47,0,0,1,5.46-5.47H186.57V121.6a12.66,12.66,0,0,0,12.69,12.69h105.3V332l25.38,23.09V121.6a12.7,12.7,0,0,0-4.08-9.33l-21.3-19.65L231.7,25.37l-23.84-22A12.68,12.68,0,0,0,199.25,0H30.84A30.87,30.87,0,0,0,0,30.84v362a30.87,30.87,0,0,0,30.84,30.84H248.44l-23.09-25.37Z"/><path class="cls-1" d="M247.61,181.63a118.21,118.21,0,1,0-27.94,187.89c10.93,2.95,25.19-1.56,36.15-12.52s15.48-25.23,12.52-36.16A118.42,118.42,0,0,0,247.61,181.63ZM234.87,336.07a100.2,100.2,0,1,1,0-141.71A100.32,100.32,0,0,1,234.87,336.07Z"/><path class="cls-1" d="M376.4,426l-97-88.23a23,23,0,0,0-2-1.63c-1.66,9.88-6.91,19.66-14.85,27.6-7.66,7.66-17,12.82-26.55,14.66.4.53.82,1.05,1.27,1.55l87.82,96.51c10.06,1.49,24.17-4.4,35.51-15.74C371.57,449.71,377.46,436,376.4,426Z"/><path class="cls-1" d="M393.42,441.47l-8.27-7.52c-1.62,10.85-7.92,22.83-18.21,33.13s-22.77,16.7-33.87,18.17l7.89,8.68c8.39,9.36,25.49,7.83,37.47-3.94q5.57-5.46,11-11C401.24,467,402.77,449.86,393.42,441.47Z"/></g></g></svg>