<svg xmlns="http://www.w3.org/2000/svg" viewBox="0 0 338.61 340.2"><defs><style>.cls-1{fill:#fff;}</style></defs><title>Asset 1</title><g id="Layer_2" data-name="Layer 2"><g id="Ñëîé_1" data-name="Ñëîé 1"><path class="cls-1" d="M338.41,243.54l-2.83-11.23a6.87,6.87,0,0,0-8.34-5l-141,35.52a7,7,0,0,0-1.58.62,63.49,63.49,0,0,1,6.4,24h.13a6.91,6.91,0,0,0,1.68-.21l140.54-35.4a6.87,6.87,0,0,0,5-8.34Z"/><path class="cls-1" d="M315.18,216.75,277.6,67.56a6.87,6.87,0,0,0-8.34-5L108.37,103.11a6.87,6.87,0,0,0-5,8.34L132.9,228.64l.07.27a63,63,0,0,1,33.79,12.83,62.3,62.3,0,0,1,14.54,15.77,6.36,6.36,0,0,0,.79-.15l128.1-32.27A6.87,6.87,0,0,0,315.18,216.75Z"/><path class="cls-1" d="M100.2,235.6A62.7,62.7,0,0,1,124,228.93a6.75,6.75,0,0,0-.2-1.92L74.33,30.54A6.87,6.87,0,0,0,70.5,26L14.48.61A6.87,6.87,0,0,0,5.38,4L.61,14.59A6.87,6.87,0,0,0,4,23.68L52,45.36,99.4,233.71A6.71,6.71,0,0,0,100.2,235.6Z"/><path class="cls-1" d="M158.47,252.53a48.9,48.9,0,0,0-77.26,50.7A48.38,48.38,0,0,0,98.83,330a49.24,49.24,0,0,0,29.83,10.17h0a49,49,0,0,0,47.43-60.87A48.38,48.38,0,0,0,158.47,252.53Zm-23.53,63.74A25.77,25.77,0,1,1,153.64,285,25.78,25.78,0,0,1,134.95,316.26Z"/></g></g></svg>