<svg xmlns="http://www.w3.org/2000/svg" viewBox="0 0 196 196"><defs><style>.cls-1{fill:#fff;}</style></defs><title>Asset 2</title><g id="Layer_2" data-name="Layer 2"><g id="Layer_2-2" data-name="Layer 2"><path class="cls-1" d="M194.48,77.88l-22.91-2.8A75.72,75.72,0,0,0,166.26,62l14.54-18.43a2.15,2.15,0,0,0,0-3L156.18,15.85a2.13,2.13,0,0,0-3,0L134.81,30.25a75.33,75.33,0,0,0-13.18-5.52L118.85,1.89A1.94,1.94,0,0,0,116.7,0H81.79a1.94,1.94,0,0,0-2.15,1.89l-2.79,23a75.11,75.11,0,0,0-13.18,5.46L45.33,15.88a2.15,2.15,0,0,0-3,0L17.61,40.54a2.14,2.14,0,0,0,0,3L32.08,62a76.26,76.26,0,0,0-5.46,13.09L2.77,77.89C1.59,77.89,0,78.85,0,80v34.91c0,1.19,1.59,2.15,2.77,2.15l23.32,2.77a76.81,76.81,0,0,0,5.6,13.4L17.53,151.4a2.15,2.15,0,0,0,0,3l24.7,24.68a2.16,2.16,0,0,0,3,0l17.79-14A75.42,75.42,0,0,0,77,171l2.69,22.6a2.38,2.38,0,0,0,2.15,2.4H116.7a2.38,2.38,0,0,0,2.15-2.4l2.69-22.47a75.64,75.64,0,0,0,13.84-5.9l17.79,13.93a2.15,2.15,0,0,0,3,0l24.68-24.69a2.15,2.15,0,0,0,0-3l-14.24-18.15a76.25,76.25,0,0,0,5.45-13.4l22.38-2.77c1.19,0,1.52-1,1.52-2.15V80C196,78.85,195.66,77.88,194.48,77.88Zm-96-26.28A20.26,20.26,0,1,1,78.25,71.86,20.26,20.26,0,0,1,98.51,51.6Zm4.18,43.54-1.11,5.95c0,.22-.24.47-.47.47H95.54a.49.49,0,0,1-.48-.42l-.74-6c0-.27.19-.67.48-.67h7.4C102.51,94.45,102.74,94.86,102.68,95.14ZM132,140.59c0,1.81-1,2.61-2.81,2.61H67.87c-1.81,0-2.87-.8-2.87-2.61V102.11c0-3.9,6.62-7.31,16.76-9.13a3.16,3.16,0,0,1,3.33,1.59l9.28,16.18.58-5.24c.07-.66.6-.91,1.27-.91h4.26a1.2,1.2,0,0,1,1.3,1l.77,5.61,9.54-16.58A3,3,0,0,1,115.29,93c10.14,1.82,16.74,5.2,16.74,9.1Z"/></g></g></svg>