<svg xmlns="http://www.w3.org/2000/svg" viewBox="0 0 408 408"><defs><style>.cls-1{fill:#fff;}</style></defs><title>Asset 1</title><g id="Layer_2" data-name="Layer 2"><g id="Ñëîé_1" data-name="Ñëîé 1"><path class="cls-1" d="M204,408C91.51,408,0,316.49,0,204S91.51,0,204,0,408,91.51,408,204,316.49,408,204,408Zm0-385.39C104,22.61,22.61,104,22.61,204S104,385.39,204,385.39,385.39,304,385.39,204,304,22.61,204,22.61Z"/><path class="cls-1" d="M250.24,329.21c-7-1.78-12-3.82-14.86-6.06-2.61-2-4.35-5-5.32-9.07-1.11-4.62-1.67-13.26-1.67-25.66V125h-17.7l-56,2.16v19.21l3.39.6c6.29,1.12,11.16,2.47,14.45,4a12.85,12.85,0,0,1,6.22,5.95c1.51,3,2.41,7.08,2.68,12.26.29,5.73.44,13.37.44,22.74v97.13c0,10.07-.46,17.53-1.37,22.15-1.06,5.36-2.39,8-3.31,9.31a14.41,14.41,0,0,1-4.87,4.36c-1.51.82-4.76,2.25-11.6,4.36l-2.9.89v18.07h95.55V330Z"/><path class="cls-1" d="M199.68,119.87a30,30,0,1,0-30-30A30.08,30.08,0,0,0,199.68,119.87Z"/></g></g></svg>