<svg xmlns="http://www.w3.org/2000/svg" viewBox="0 0 406.46 534"><defs><style>.cls-1{fill:#fff;}</style></defs><title>Asset 1</title><g id="Layer_2" data-name="Layer 2"><g id="Layer_1-2" data-name="Layer 1"><path class="cls-1" d="M350.34,82.37A14,14,0,0,1,343,79.7C217.59-11.55,103.59,47.33,102.44,47.94A14.13,14.13,0,0,1,89.17,23c5.29-2.81,130.89-67.71,270.44,33.85a14.13,14.13,0,0,1-9.27,25.52Z"/><path class="cls-1" d="M390.75,305.4h0a14.12,14.12,0,0,1-13.13-15c8.32-122.45-73.12-177.57-73.95-178.11l-.58-.41c-106.87-78.49-250,15-251.4,15.94A14.13,14.13,0,0,1,36,104.26c6.5-4.34,160.67-105.35,283.55-15.4,7.21,4.87,95.48,67.45,86.24,203.39A14.12,14.12,0,0,1,390.75,305.4Z"/><path class="cls-1" d="M233.45,385.6a14.13,14.13,0,0,1,1.9-28.19c72.33,4.87,85.38-48.14,85.91-50.4,21.11-97.47-30-140.16-32.16-141.92-49-37.67-108.18-42.92-175.57-15.43-52,21.21-89.56,54.8-89.93,55.14a14.13,14.13,0,0,1-19-20.95c1.65-1.5,41.05-36.87,97.45-60,76.58-31.47,147.27-24.88,204.44,19,2.89,2.28,67.36,54.62,42.3,170.32C342.51,340.61,310.32,390.77,233.45,385.6Z"/><path class="cls-1" d="M232.14,331a101.49,101.49,0,0,1-31.27-7.64,14.12,14.12,0,0,1,10.59-26.19c18.55,7.51,33.72,7.71,45.09.59,13.54-8.48,19.3-25.53,20.19-38.67.5-7.55.75-33.66-17.44-52.49-14.57-15.08-37.65-22.22-68.58-21.21C110.28,188,32.87,274.86,32.1,275.74a14.13,14.13,0,1,1-21.2-18.67c3.48-4,86.39-96.92,178.91-99.93,39.26-1.28,69.46,8.75,89.82,29.82,25.56,26.45,26.22,60.58,25.31,74-1.75,26-14.24,48.72-33.38,60.72C262.75,327.2,249.73,332.16,232.14,331Z"/><path class="cls-1" d="M67.72,453a14.12,14.12,0,0,1-7.58-25.36c2.07-1.57,52-38.38,158.62-31.2C326.25,403.68,350.57,446,353,450.84c0,0-10.51,23.6-25.05,13.05-7.91-5.74-20.14-33.14-111.08-39.26C120.7,418.17,77.62,449.86,77.2,450.18A14,14,0,0,1,67.72,453Z"/><path class="cls-1" d="M101.63,502.43a14.13,14.13,0,0,1-10-22.95c1.28-1.58,32.29-38.79,120.32-32.86,88.67,6,105.11,46.78,105.73,50.93s-10.88,16.61-26.87,8.71c-9.14-4.52-11.8-26.81-80.76-31.45-72.33-4.87-96.19,22.12-96.41,22.4A14.12,14.12,0,0,1,101.63,502.43Z"/><path class="cls-1" d="M327.85,417a14.13,14.13,0,0,1-7.16-25.67c32.1-22.46,36-45.51,36.1-46.48a14.12,14.12,0,1,1,28,3.62c-.17,1.45-4.8,35.85-47.93,66A14,14,0,0,1,327.85,417Z"/><path class="cls-1" d="M126.26,376.37c-.26,0-.51,0-.78,0a14.2,14.2,0,0,1-14.41-13.94c0-1.46-.29-36.17,38.15-72.11A14.12,14.12,0,0,1,168.52,311c-28.63,26.76-29.19,50.12-29.19,51.11A14,14,0,0,1,126.26,376.37Z"/><path class="cls-1" d="M236,534a14.07,14.07,0,0,1-4.61-1.1c-36-15.41-57.63-6.5-58.53-6.12a14,14,0,0,1-18.67-6.89A14.23,14.23,0,0,1,161.1,501c1.33-.62,33-14.84,81.38,5.85A14.12,14.12,0,0,1,236,534Z"/><path class="cls-1" d="M49.31,398.25a14.66,14.66,0,0,1-2.4-.37,14.13,14.13,0,0,1-10.39-17.06c1.21-5,30.36-121.65,103.82-154.94,30.25-13.72,63.17-11.51,97.82,6.57a14.13,14.13,0,0,1-13.07,25c-26.93-14-50.83-16-73.09-5.89C90.93,279.29,64.23,386.42,64,387.5A14.12,14.12,0,0,1,49.31,398.25Z"/></g></g></svg>