<svg xmlns="http://www.w3.org/2000/svg" viewBox="0 0 512.27 504.65"><defs><style>.cls-1{fill:#fff;}</style></defs><title>Asset 1</title><g id="Layer_2" data-name="Layer 2"><g id="Layer_1-2" data-name="Layer 1"><path class="cls-1" d="M463.83,323.19a41.39,41.39,0,0,0-19.8,5c-11.92-5.94-33.7-19.32-48.72-43.24a53,53,0,0,0-72.62-75.21c-19.89-10-32.45-25.71-39.75-37.94A103.89,103.89,0,0,0,307,116.17c13.44-4.91,41.93-12.11,71.8.24a67.28,67.28,0,1,0,0-24.15C349,104.6,320.48,97.4,307,92.49a104.33,104.33,0,1,0-182.87,79.72c-12.1,19.32-28.6,31.77-40.81,39a53,53,0,1,0-1.85,88.19c13.18,6.3,37.33,21.24,49.47,50.12a66.46,66.46,0,1,0,16.87-16.87C119,320.51,104,296.36,97.74,283.18a53,53,0,0,0-1.23-58.83c7.23-12.21,19.68-28.72,39-40.81a104.31,104.31,0,0,0,135.37.33c12.23,7.31,27.92,19.86,37.94,39.76A53,53,0,0,0,384,296.25c23.92,15,37.3,36.81,43.24,48.72a41.67,41.67,0,0,0,0,39.58c-6,12.95-21.07,38.34-51.07,50.77a36.43,36.43,0,1,0,17.12,17.12c12.43-30,37.82-45.08,50.77-51.07a41.59,41.59,0,1,0,19.78-78.18ZM410.06,69.39a49.41,49.41,0,1,1,0,69.87A49.41,49.41,0,0,1,410.06,69.39ZM80.57,282.23a38.95,38.95,0,1,1,0-55.08A38.94,38.94,0,0,1,80.57,282.23Zm177-123.72a76.63,76.63,0,1,1,0-108.37A76.63,76.63,0,0,1,257.57,158.51ZM485.43,386.38a30.55,30.55,0,1,1,0-43.2A30.54,30.54,0,0,1,485.43,386.38Z"/></g></g></svg>