<svg xmlns="http://www.w3.org/2000/svg" viewBox="0 0 510.34 326.97"><defs><style>.cls-1{fill:#a7a9ac;}.cls-2{fill:#fefefe;}.cls-3{fill:#fff;}</style></defs><title>Asset 1</title><g id="Layer_2" data-name="Layer 2"><g id="Ñëîé_1" data-name="Ñëîé 1"><g id="_Group_" data-name="&lt;Group&gt;"><path class="cls-1" d="M504.89,312.76c0,.28,0,.53,0,.79a7.55,7.55,0,0,1-.33,2.22C504.73,314.79,504.83,313.78,504.89,312.76Z"/><polygon class="cls-2" points="489.81 52.57 489.81 286.1 369.76 169.34 489.81 52.57"/><path class="cls-2" d="M489.81,23.71v.92c0,.13,0,.26,0,.39A15.74,15.74,0,0,1,485,36.15L353.49,164.07l-90,87.52a15.78,15.78,0,0,1-22.11,0l-90-87.52L19.91,36.16A15.75,15.75,0,0,1,15.12,25c0-.13,0-.25,0-.39v-.92A15.87,15.87,0,0,1,31,7.86H474A15.87,15.87,0,0,1,489.81,23.71Z"/><path class="cls-2" d="M485,302.5A14,14,0,0,1,474,327H31A14.05,14.05,0,0,1,19.9,302.51L146,179.89l84.86,82.53a30.8,30.8,0,0,0,43.19,0l84.86-82.53Z"/><polygon class="cls-2" points="135.15 169.34 15.1 286.09 15.1 52.58 135.15 169.34"/><path class="cls-1" d="M0,312.72c.05,1,.16,2.06.31,3.06A7.55,7.55,0,0,1,0,313.56C0,313.28,0,313,0,312.72Z"/></g><g id="_Group_2" data-name="&lt;Group&gt;"><path class="cls-3" d="M510.32,304.9c0,.28,0,.53,0,.79a7.55,7.55,0,0,1-.33,2.22C510.16,306.93,510.26,305.92,510.32,304.9Z"/><polygon class="cls-3" points="495.23 44.71 495.23 278.24 375.18 161.48 495.23 44.71"/><path class="cls-3" d="M495.23,15.85v.92c0,.13,0,.26,0,.39a15.74,15.74,0,0,1-4.78,11.13L358.92,156.2l-90,87.52a15.78,15.78,0,0,1-22.11,0l-90-87.52L25.34,28.3a15.75,15.75,0,0,1-4.79-11.14c0-.13,0-.25,0-.39v-.92A15.87,15.87,0,0,1,36.38,0h443A15.87,15.87,0,0,1,495.23,15.85Z"/><path class="cls-3" d="M490.42,294.64a14,14,0,0,1-11,24.47h-443a14.05,14.05,0,0,1-11.05-24.46L151.43,172l84.86,82.53a30.8,30.8,0,0,0,43.19,0L364.34,172Z"/><polygon class="cls-3" points="140.58 161.48 20.53 278.23 20.53 44.72 140.58 161.48"/><path class="cls-3" d="M5.45,304.86c.05,1,.16,2.06.32,3.06a7.55,7.55,0,0,1-.33-2.22C5.43,305.42,5.44,305.14,5.45,304.86Z"/></g></g></g></svg>