<svg xmlns="http://www.w3.org/2000/svg" viewBox="0 0 500 500"><defs><style>.cls-1{fill:#fff;}</style></defs><title>Asset 1</title><g id="Layer_2" data-name="Layer 2"><g id="Ñëîé_1" data-name="Ñëîé 1"><path class="cls-1" d="M494.82,211.38l-51.12-5.25a197.4,197.4,0,0,0-25.51-61.73L451,104.8a5.2,5.2,0,0,0,0-7.33L403.13,49.58a5.2,5.2,0,0,0-7.33,0L355.93,82a197.41,197.41,0,0,0-61.67-25.64l-4.78-51.2A5.2,5.2,0,0,0,284.3,0H216.57a5.2,5.2,0,0,0-5.18,5.18L206.14,56.3a197.39,197.39,0,0,0-61.73,25.51L104.8,49a5.2,5.2,0,0,0-7.33,0L49.58,96.87a5.2,5.2,0,0,0,0,7.33L82,144.07a197.4,197.4,0,0,0-25.64,61.67l-51.2,4.78A5.2,5.2,0,0,0,0,215.7v67.73a5.2,5.2,0,0,0,5.18,5.18l51.12,5.25a197.4,197.4,0,0,0,25.51,61.73L49,395.2a5.2,5.2,0,0,0,0,7.33l47.89,47.89a5.2,5.2,0,0,0,7.33,0L144.07,418a197.41,197.41,0,0,0,61.67,25.64l4.78,51.2A5.2,5.2,0,0,0,215.7,500h67.73a5.2,5.2,0,0,0,5.18-5.18l5.25-51.12a197.4,197.4,0,0,0,61.73-25.51L395.2,451a5.2,5.2,0,0,0,7.33,0l47.89-47.89a5.2,5.2,0,0,0,0-7.33L418,355.93a197.4,197.4,0,0,0,25.64-61.67l51.2-4.78A5.2,5.2,0,0,0,500,284.3V216.57A5.2,5.2,0,0,0,494.82,211.38ZM250,392.81c-78.75,0-142.81-64.07-142.81-142.81S171.25,107.19,250,107.19,392.81,171.25,392.81,250,328.75,392.81,250,392.81Z"/><path class="cls-1" d="M250,135.81A114.19,114.19,0,1,0,364.19,250,114.32,114.32,0,0,0,250,135.81Zm0,188.38A74.19,74.19,0,1,1,324.19,250,74.27,74.27,0,0,1,250,324.19Z"/></g></g></svg>