<svg xmlns="http://www.w3.org/2000/svg" viewBox="0 0 416 401"><defs><style>.cls-1{fill:#fff;}</style></defs><title>Asset 1</title><g id="Layer_2" data-name="Layer 2"><g id="Layer_1-2" data-name="Layer 1"><path class="cls-1" d="M215.25,68.06a12.4,12.4,0,0,1,12.44,12.42V88.3A74.57,74.57,0,0,1,251,96.12c12.83,7,23.74,17.59,29.78,31,2,4.39,3.91,9.95,4,15.33a19.34,19.34,0,0,1-19.44,19.41c-7.91,0-14-3.34-16.65-9.08-3.56-7.43-3.61-15.94-8.48-22.8a30.29,30.29,0,0,0-17.44-11.9c-11.78-2.74-24.17,2.61-31.39,12-7.7,10-7.87,23.54-1.22,34.31,9.48,15.42,23,15.81,38.44,21.19,7.74,2.65,15.78,4.52,23.44,7.51,11.17,4.39,21.91,12.25,29,22.89,5.78,8.64,8.61,19.76,8.61,33.27,0,17.68-5.57,32.18-16.83,43.47-12,12-28.22,18.46-45.18,20.41v7.38a12.44,12.44,0,0,1-24.87,0v-7.69a100.51,100.51,0,0,1-26.7-7.21c-12.83-5.47-24.7-17.89-31.26-31.49a38,38,0,0,1-4.09-15.33,19.31,19.31,0,0,1,19.44-19.41c7.91,0,14,3.39,16.65,9.08,5.78,12.33,9.13,27.4,27.57,33.31,10.83,3.43,26.74,4.34,39.83-9.55,3.61-3.34,7.26-10.55,7.26-19.07,0-8.12-2.35-14.2-6.87-18.37A50.12,50.12,0,0,0,224,223.45c-24.74-7.16-53.35-15.63-68.61-38.09-5.83-8.6-8.61-19.76-8.61-33.31q0-26.51,16.87-43.43c11-10.94,23.91-18.2,39.13-20.41V80.48a12.4,12.4,0,0,1,12.44-12.42Z"/><path class="cls-1" d="M213.35,401c89.32.82,171.64-58.56,195.8-148.61C437.78,145.66,374.07,35.44,267.22,6.85S50,41.88,21.39,148.6A19.9,19.9,0,0,0,59.8,159l0-.11a160.74,160.74,0,1,1,41.65,155.25,19.88,19.88,0,0,0-28.57,27.66l.45.45a201.19,201.19,0,0,0,140,58.73Z"/><path class="cls-1" d="M4.77,143.19a4.77,4.77,0,0,0-4.14,7.16l40.21,84a4.78,4.78,0,0,0,8.27,0l40.21-84a4.77,4.77,0,0,0-4.13-7.16Z"/></g></g></svg>