<svg xmlns="http://www.w3.org/2000/svg" viewBox="0 0 146.17 180"><defs><style>.cls-1{fill:#fff;}</style></defs><title>Asset 1</title><g id="Layer_2" data-name="Layer 2"><g id="Main"><g id="Element"><path class="cls-1" d="M0,73.08C0,133.6,64.5,175,72.31,179.8a1.62,1.62,0,0,0,1.54,0c7.81-4.79,72.31-46.2,72.31-106.72A73.08,73.08,0,0,0,0,73.08Zm73.08,62.4c-33.64,0-60.9-28.77-60.9-62.4a60.9,60.9,0,1,1,121.8,0C134,106.72,106.72,135.49,73.08,135.49Z"/><path class="cls-1" d="M85.83,92.28c-1.1-1.14-1.77-8.07-2.14-11.52,7-3.48,14.88-12,14.88-32.86a32.87,32.87,0,0,0-1-8.36c-7.2-27.53-50-24.95-50,8.36,0,17.13,5.33,26,11.11,30.48a22,22,0,0,0,3.77,2.38c-.37,3.45-1,10.38-2.14,11.52-3,3.14-10.1,3.55-17.12,4-6.76.43-13.48.9-16.46,3.87q-.73.73-1.38,1.48a1.94,1.94,0,0,0,0,2.35c11.16,14.06,28.39,24.29,47.74,24.29s36.58-10.22,47.74-24.29a1.94,1.94,0,0,0,0-2.35q-.65-.75-1.38-1.48C113.33,94.1,91.75,98.45,85.83,92.28Z"/></g></g></g></svg>