<svg xmlns="http://www.w3.org/2000/svg" viewBox="0 0 639.64 448.04"><defs><style>.cls-1{fill:#fff;}</style></defs><title>Asset 1</title><g id="Layer_2" data-name="Layer 2"><g id="Layer_1-2" data-name="Layer 1"><path class="cls-1" d="M589.72,49.92A168.8,168.8,0,0,0,469.64,0H300l-1,.11a63.76,63.76,0,0,0-22.6,7.32C260,16.46,251.05,31.59,251.09,50v.21C251.53,85,280.64,99,300.1,100l.51,0h169a70.44,70.44,0,0,1,70,70v40a70.44,70.44,0,0,1-70,70H215.73V230.44c0-16.5-11.78-23.4-26.17-15.34L10.8,315.23c-14.4,8.06-14.4,21.26,0,29.32L189.56,444.67c14.4,8.06,26.17,1.16,26.17-15.34V380H469.64a170.44,170.44,0,0,0,170-170V170A168.8,168.8,0,0,0,589.72,49.92Z"/></g></g></svg>