<svg xmlns="http://www.w3.org/2000/svg" viewBox="0 0 290.57 191.15"><defs><style>.cls-1{fill:#008090;}.cls-2,.cls-4{fill:#fff;}.cls-3{fill:#c3e4ee;}.cls-3,.cls-4,.cls-7{stroke:#1f140f;stroke-miterlimit:10;stroke-width:0.5px;}.cls-5{fill:#18b2cd;}.cls-6{fill:#b2b1b7;}.cls-7{fill:none;}.cls-8{fill:#1f140f;}.cls-9{fill:#e5583f;}.cls-10{fill:#64b8a3;}.cls-11{fill:#f2d553;}.cls-12{fill:#e45666;}.cls-13{fill:#41b098;}</style></defs><title>Asset 1</title><g id="Layer_2" data-name="Layer 2"><g id="Capa_1" data-name="Capa 1"><path class="cls-1" d="M290.57,185.74a5.44,5.44,0,0,1-5.48,5.41H5.48A5.44,5.44,0,0,1,0,185.74V5.41A5.44,5.44,0,0,1,5.48,0H285.09a5.44,5.44,0,0,1,5.48,5.41Z"/><rect class="cls-2" x="13.91" y="14.21" width="262.75" height="162.72"/><rect class="cls-3" x="39.35" y="43.13" width="27.58" height="11.64"/><rect class="cls-3" x="23.8" y="43.13" width="15.55" height="11.64"/><rect class="cls-3" x="66.93" y="43.13" width="27.58" height="11.64"/><rect class="cls-3" x="94.5" y="43.13" width="27.58" height="11.64"/><rect class="cls-3" x="122.08" y="43.13" width="27.58" height="11.64"/><rect class="cls-3" x="149.66" y="43.13" width="27.58" height="11.64"/><rect class="cls-3" x="177.23" y="43.13" width="27.58" height="11.64"/><rect class="cls-4" x="39.35" y="54.77" width="27.58" height="11.64"/><rect class="cls-3" x="23.8" y="54.77" width="15.55" height="11.64"/><rect class="cls-4" x="66.93" y="54.77" width="27.58" height="11.64"/><rect class="cls-4" x="94.5" y="54.77" width="27.58" height="11.64"/><rect class="cls-4" x="122.08" y="54.77" width="27.58" height="11.64"/><rect class="cls-4" x="149.66" y="54.77" width="27.58" height="11.64"/><rect class="cls-4" x="177.23" y="54.77" width="27.58" height="11.64"/><rect class="cls-4" x="39.35" y="66.41" width="27.58" height="11.64"/><rect class="cls-3" x="23.8" y="66.41" width="15.55" height="11.64"/><rect class="cls-4" x="66.93" y="66.41" width="27.58" height="11.64"/><rect class="cls-4" x="94.5" y="66.41" width="27.58" height="11.64"/><rect class="cls-4" x="122.08" y="66.41" width="27.58" height="11.64"/><rect class="cls-4" x="149.66" y="66.41" width="27.58" height="11.64"/><rect class="cls-4" x="177.23" y="66.41" width="27.58" height="11.64"/><rect class="cls-4" x="39.35" y="78.06" width="27.58" height="11.64"/><rect class="cls-3" x="23.8" y="78.06" width="15.55" height="11.64"/><rect class="cls-4" x="66.93" y="78.06" width="27.58" height="11.64"/><rect class="cls-4" x="94.5" y="78.06" width="27.58" height="11.64"/><rect class="cls-4" x="122.08" y="78.06" width="27.58" height="11.64"/><rect class="cls-4" x="149.66" y="78.06" width="27.58" height="11.64"/><rect class="cls-4" x="177.23" y="78.06" width="27.58" height="11.64"/><rect class="cls-4" x="39.35" y="89.7" width="27.58" height="11.64"/><rect class="cls-3" x="23.8" y="89.7" width="15.55" height="11.64"/><rect class="cls-4" x="66.93" y="89.7" width="27.58" height="11.64"/><rect class="cls-4" x="94.5" y="89.7" width="27.58" height="11.64"/><rect class="cls-4" x="122.08" y="89.7" width="27.58" height="11.64"/><rect class="cls-4" x="149.66" y="89.7" width="27.58" height="11.64"/><rect class="cls-4" x="177.23" y="89.7" width="27.58" height="11.64"/><rect class="cls-4" x="39.35" y="101.34" width="27.58" height="11.64"/><rect class="cls-3" x="23.8" y="101.34" width="15.55" height="11.64"/><rect class="cls-4" x="66.93" y="101.34" width="27.58" height="11.64"/><rect class="cls-4" x="94.5" y="101.34" width="27.58" height="11.64"/><rect class="cls-4" x="122.08" y="101.34" width="27.58" height="11.64"/><rect class="cls-4" x="149.66" y="101.34" width="27.58" height="11.64"/><rect class="cls-4" x="177.23" y="101.34" width="27.58" height="11.64"/><rect class="cls-4" x="39.35" y="112.98" width="27.58" height="11.64"/><rect class="cls-3" x="23.8" y="112.98" width="15.55" height="11.64"/><rect class="cls-4" x="66.93" y="112.98" width="27.58" height="11.64"/><rect class="cls-4" x="94.5" y="112.98" width="27.58" height="11.64"/><rect class="cls-4" x="122.08" y="112.98" width="27.58" height="11.64"/><rect class="cls-4" x="149.66" y="112.98" width="27.58" height="11.64"/><rect class="cls-4" x="177.23" y="112.98" width="27.58" height="11.64"/><rect class="cls-4" x="39.35" y="124.62" width="27.58" height="11.64"/><rect class="cls-3" x="23.8" y="124.62" width="15.55" height="11.64"/><rect class="cls-4" x="66.93" y="124.62" width="27.58" height="11.64"/><rect class="cls-4" x="94.5" y="124.62" width="27.58" height="11.64"/><rect class="cls-4" x="122.08" y="124.62" width="27.58" height="11.64"/><rect class="cls-4" x="149.66" y="124.62" width="27.58" height="11.64"/><rect class="cls-4" x="177.23" y="124.62" width="27.58" height="11.64"/><rect class="cls-5" x="16.54" y="17.5" width="257.5" height="18.32"/><rect class="cls-6" x="216.53" y="45.59" width="50.42" height="2.25"/><rect class="cls-6" x="211.11" y="54.88" width="59.73" height="2.25"/><rect class="cls-6" x="211.11" y="59.51" width="59.73" height="2.25"/><rect class="cls-6" x="211.11" y="64.14" width="59.73" height="2.25"/><rect class="cls-6" x="211.11" y="68.78" width="59.73" height="2.25"/><rect class="cls-6" x="211.11" y="73.41" width="59.73" height="2.25"/><rect class="cls-6" x="22.99" y="143.08" width="246.3" height="2.25"/><rect class="cls-6" x="22.99" y="147.71" width="246.3" height="2.25"/><rect class="cls-6" x="22.99" y="152.34" width="246.3" height="2.25"/><rect class="cls-6" x="22.99" y="156.97" width="246.3" height="2.25"/><rect class="cls-6" x="22.99" y="161.61" width="246.3" height="2.25"/><polyline class="cls-7" points="263.13 130.44 221.78 130.44 221.78 90.02"/><path class="cls-8" d="M264.64,130.44a7.55,7.55,0,0,1-2.14-1.19l.43,1.19-.43,1.19A7.57,7.57,0,0,1,264.64,130.44Z"/><path class="cls-8" d="M221.78,88.51A7.55,7.55,0,0,0,223,90.64l-1.19-.43-1.19.43A7.53,7.53,0,0,0,221.78,88.51Z"/><rect class="cls-9" x="224.18" y="92.42" width="4.85" height="36.32"/><rect class="cls-10" x="231.89" y="97.99" width="4.85" height="30.75"/><rect class="cls-11" x="239.61" y="103.75" width="4.85" height="24.99"/><rect class="cls-12" x="247.33" y="110.38" width="4.85" height="18.37"/><rect class="cls-13" x="255.05" y="117.15" width="4.85" height="11.59"/><path class="cls-5" d="M216.18,26.82a1.17,1.17,0,0,0,0-1.67,1.2,1.2,0,0,0-1.69,0,1.17,1.17,0,0,0-.21,1.39l-.08.06-1.34,1.32a.35.35,0,0,0,0,.49.36.36,0,0,0,.5,0l1.34-1.32.06-.08A1.21,1.21,0,0,0,216.18,26.82Zm-1.42-.27a.8.8,0,0,1,0-1.13.82.82,0,0,1,1.15,0,.79.79,0,0,1,0,1.13A.82.82,0,0,1,214.76,26.55Z"/></g></g></svg>