<svg xmlns="http://www.w3.org/2000/svg" viewBox="0 0 67.86 48.08"><defs><style>.cls-1{fill:#fff;}.cls-2{fill:#bbd5e7;}.cls-3{fill:#a9c4e9;}.cls-4{fill:#799ecc;}.cls-5{fill:#f3c974;}.cls-6{fill:#f48f1f;}.cls-7{fill:#eeeff3;}</style></defs><title>Asset 1</title><g id="Layer_2" data-name="Layer 2"><g id="xls-06"><rect class="cls-1" x="16.06" y="12.4" width="25.52" height="11.64"/><polygon class="cls-2" points="16.06 24.04 16.06 24.81 42.34 24.81 42.34 11.64 15.3 11.64 15.3 24.81 16.06 24.81 16.06 24.04 16.82 24.04 16.82 13.17 40.81 13.17 40.81 23.28 16.06 23.28 16.06 24.04 16.82 24.04 16.06 24.04"/><rect class="cls-1" x="41.58" y="12.4" width="25.52" height="11.64"/><polygon class="cls-2" points="41.58 24.04 41.58 24.81 67.86 24.81 67.86 11.64 40.81 11.64 40.81 24.81 41.58 24.81 41.58 24.04 42.34 24.04 42.34 13.17 66.33 13.17 66.33 23.28 41.58 23.28 41.58 24.04 42.34 24.04 41.58 24.04"/><rect class="cls-1" x="16.06" y="24.04" width="25.52" height="11.63"/><polygon class="cls-2" points="16.06 35.68 16.06 36.44 42.34 36.44 42.34 23.28 15.3 23.28 15.3 36.44 16.06 36.44 16.06 35.68 16.82 35.68 16.82 24.81 40.81 24.81 40.81 34.92 16.06 34.92 16.06 35.68 16.82 35.68 16.06 35.68"/><rect class="cls-1" x="41.58" y="24.04" width="25.52" height="11.63"/><polygon class="cls-2" points="41.58 35.68 41.58 36.44 67.86 36.44 67.86 23.28 40.81 23.28 40.81 36.44 41.58 36.44 41.58 35.68 42.34 35.68 42.34 24.81 66.33 24.81 66.33 34.92 41.58 34.92 41.58 35.68 42.34 35.68 41.58 35.68"/><rect class="cls-1" x="16.06" y="35.68" width="25.52" height="11.64"/><polygon class="cls-2" points="16.06 47.32 16.06 48.08 42.34 48.08 42.34 34.92 15.3 34.92 15.3 48.08 16.06 48.08 16.06 47.32 16.82 47.32 16.82 36.44 40.81 36.44 40.81 46.55 16.06 46.55 16.06 47.32 16.82 47.32 16.06 47.32"/><rect class="cls-1" x="41.58" y="35.68" width="25.52" height="11.64"/><polygon class="cls-2" points="41.58 47.32 41.58 48.08 67.86 48.08 67.86 34.92 40.81 34.92 40.81 48.08 41.58 48.08 41.58 47.32 42.34 47.32 42.34 36.44 66.33 36.44 66.33 46.55 41.58 46.55 41.58 47.32 42.34 47.32 41.58 47.32"/><rect class="cls-3" x="0.76" y="0.77" width="15.29" height="11.64"/><polygon class="cls-4" points="16.06 12.4 16.06 11.64 1.53 11.64 1.53 1.53 15.29 1.53 15.3 12.4 16.06 12.4 16.06 11.64 16.06 12.4 16.82 12.4 16.82 0 0 0 0 13.17 16.82 13.17 16.82 12.4 16.06 12.4"/><rect class="cls-3" x="41.58" y="0.77" width="25.52" height="11.64"/><polygon class="cls-4" points="41.58 12.4 41.58 13.17 67.86 13.17 67.86 0 40.81 0 40.81 13.17 41.58 13.17 41.58 12.4 42.34 12.4 42.34 1.53 66.33 1.53 66.33 11.64 41.58 11.64 41.58 12.4 42.34 12.4 41.58 12.4"/><rect class="cls-3" x="0.76" y="12.4" width="15.29" height="11.64"/><polygon class="cls-4" points="16.06 24.04 16.06 23.28 1.53 23.28 1.53 13.17 15.29 13.17 15.3 24.04 16.06 24.04 16.06 23.28 16.06 24.04 16.82 24.04 16.82 11.64 0 11.64 0 24.81 16.82 24.81 16.82 24.04 16.06 24.04"/><rect class="cls-3" x="0.76" y="35.68" width="15.29" height="11.64"/><polygon class="cls-4" points="16.06 47.32 16.06 46.55 1.53 46.55 1.53 36.44 15.29 36.44 15.3 47.32 16.06 47.32 16.06 46.55 16.06 47.32 16.82 47.32 16.82 34.92 0 34.92 0 48.08 16.82 48.08 16.82 47.32 16.06 47.32"/><rect class="cls-5" x="0.76" y="24.04" width="15.29" height="11.63"/><polygon class="cls-6" points="16.06 35.68 16.06 34.92 1.53 34.92 1.53 24.81 15.3 24.81 15.3 35.68 16.06 35.68 16.06 34.92 16.06 35.68 16.82 35.68 16.82 23.28 0 23.28 0 36.44 16.82 36.44 16.82 35.68 16.06 35.68"/><rect class="cls-5" x="16.06" y="0.77" width="25.52" height="11.64"/><polygon class="cls-6" points="16.06 12.4 16.06 13.17 42.34 13.17 42.34 0 15.3 0 15.3 13.17 16.06 13.17 16.06 12.4 16.82 12.4 16.82 1.53 40.81 1.53 40.81 11.64 16.06 11.64 16.06 12.4 16.82 12.4 16.06 12.4"/><polygon class="cls-7" points="5.68 10.23 13.72 3.79 13.72 10.23 5.68 10.23"/><polygon points="38.67 34.76 16.98 34.76 16.98 24.97 40.65 24.97 40.65 32.9 42.5 32.9 42.5 23.12 15.14 23.12 15.14 36.6 38.67 36.6 38.67 34.76"/><rect x="39.64" y="33.75" width="3.87" height="3.87"/><path d="M29.1,3.59h.83L32,9h-.76L30.73,7.6H28.3L27.81,9H27Zm.41.72L28.53,7h2Z"/><path d="M52.14,3.59H54a2.06,2.06,0,0,1,1.28.35,1.16,1.16,0,0,1,.45,1,1.23,1.23,0,0,1-.23.78,1,1,0,0,1-.68.37,1.43,1.43,0,0,1,.83.48,1.4,1.4,0,0,1,.3.91,1.35,1.35,0,0,1-.49,1.11A2.18,2.18,0,0,1,54.07,9H52.14Zm.73.6V5.82h1.08a1.3,1.3,0,0,0,.79-.2A.72.72,0,0,0,55,5a.72.72,0,0,0-.26-.61,1.29,1.29,0,0,0-.79-.2Zm0,2.21v2H54a1.3,1.3,0,0,0,.87-.24.93.93,0,0,0,.28-.74.92.92,0,0,0-.28-.74A1.31,1.31,0,0,0,54,6.41Z"/><polygon points="6.6 20.73 7.79 20.73 7.79 16.63 6.49 16.89 6.49 16.23 7.78 15.96 8.51 15.96 8.51 20.73 9.7 20.73 9.7 21.35 6.6 21.35 6.6 20.73"/><path d="M7.1,32.2H9.64v.61H6.22V32.2L7.35,31c.48-.48.78-.79.9-.93a3.54,3.54,0,0,0,.49-.67,1.18,1.18,0,0,0,.14-.53.9.9,0,0,0-.3-.7,1.13,1.13,0,0,0-.78-.27,2.47,2.47,0,0,0-.72.12,4.3,4.3,0,0,0-.81.36v-.74a6,6,0,0,1,.82-.27,3,3,0,0,1,.7-.09,2,2,0,0,1,1.33.42,1.39,1.39,0,0,1,.5,1.12,1.59,1.59,0,0,1-.12.63,3.06,3.06,0,0,1-.45.7l-.58.61Z"/><path d="M8.67,41.37a1.4,1.4,0,0,1,.82.46,1.32,1.32,0,0,1,.29.87,1.49,1.49,0,0,1-.55,1.23,2.45,2.45,0,0,1-1.56.44,3.78,3.78,0,0,1-.7-.07,5,5,0,0,1-.74-.2v-.7a2.57,2.57,0,0,0,.66.27,3,3,0,0,0,.75.09,1.7,1.7,0,0,0,1-.27.92.92,0,0,0,.36-.79A.9.9,0,0,0,8.73,42a1.44,1.44,0,0,0-.93-.27H7.17v-.6h.66a1.35,1.35,0,0,0,.82-.21.72.72,0,0,0,.28-.62.75.75,0,0,0-.29-.64,1.39,1.39,0,0,0-.84-.22,3.66,3.66,0,0,0-.64.06,6.39,6.39,0,0,0-.75.2V39a6.89,6.89,0,0,1,.78-.17,4.09,4.09,0,0,1,.68-.06,2.08,2.08,0,0,1,1.31.38,1.23,1.23,0,0,1,.48,1,1.14,1.14,0,0,1-.26.76A1.33,1.33,0,0,1,8.67,41.37Z"/></g></g></svg>